# xmcd
#
# Track frame offsets:
#	150
#	32537
#	48670
#	71432
#	98980
#	105130
#	122517
#	157952
#	181357
#	203135
#	233187
#	253767
#	275682
#
# Disc length: 4194
#
# Revision: 4
# Processed by: cddbd v1.5.1PL0 Copyright (c) Steve Scherf et al.
# Submitted via: CDex 1.40Beta9
# Normalized: r3:DSETVAR1,TDELIM( - )
#
DISCID=ab10600d
DTITLE=Various Artist - YOJI BIOMEHANIKA presents NRG ESSENCE 2001
DYEAR=2001
DGENRE=Techno
TTITLE0=ANGEL OF DEATH - ANGEL OF DEATH (HENNES and COLD REMIX)
TTITLE1=SOLO PLASTIC - WHAT DO YOU WANT ME TO DO?
TTITLE2=DON DIABLO - CASE DEL DIABLO
TTITLE3=DANIEL RO - CELEBRATE THE LIFE
TTITLE4=STEEKA - WILD and FREE
TTITLE5=TURKANA - WONDERLAND
TTITLE6=CAPTAIN TINRIB - 2001:THE FINAL FRONTNOSE (WEIRD REMIX)
TTITLE7=CHRIS-C - FREE FALL (YOJI BIOMEHANIKA REMIX)
TTITLE8=YANNY and GOLLUM - SHADOWS and LIGHTS (KAYLAB MIX)
TTITLE9=AROME - SOMEBODY
TTITLE10=BUSH - COSMIC VIBES
TTITLE11=KAYLAB - HERE WE GO
TTITLE12=DJ SCOT PROJECT - O
EXTD=YEAR: 2001 ID3G: 18
EXTT0=
EXTT1=
EXTT2=
EXTT3=
EXTT4=
EXTT5=
EXTT6=
EXTT7=
EXTT8=
EXTT9=
EXTT10=
EXTT11=
EXTT12=
PLAYORDER=
